<?xml version="1.0" encoding="UTF-8" standalone="no"?>
<!-- Created with Inkscape (http://www.inkscape.org/) -->

<svg
   width="29.658909mm"
   height="38.435528mm"
   viewBox="0 0 29.658908 38.435527"
   version="1.1"
   id="svg1"
   xml:space="preserve"
   inkscape:version="1.3 (0e150ed6c4, 2023-07-21)"
   sodipodi:docname="smile_face.svg"
   inkscape:export-filename="smile_face.png"
   inkscape:export-xdpi="96"
   inkscape:export-ydpi="96"
   xmlns:inkscape="http://www.inkscape.org/namespaces/inkscape"
   xmlns:sodipodi="http://sodipodi.sourceforge.net/DTD/sodipodi-0.dtd"
   xmlns="http://www.w3.org/2000/svg"
   xmlns:svg="http://www.w3.org/2000/svg"><sodipodi:namedview
     id="namedview1"
     pagecolor="#ffffff"
     bordercolor="#666666"
     borderopacity="1.0"
     inkscape:showpageshadow="2"
     inkscape:pageopacity="0.0"
     inkscape:pagecheckerboard="0"
     inkscape:deskcolor="#d1d1d1"
     inkscape:document-units="mm"
     inkscape:zoom="1.6641134"
     inkscape:cx="160.4458"
     inkscape:cy="82.02566"
     inkscape:window-width="1366"
     inkscape:window-height="705"
     inkscape:window-x="-8"
     inkscape:window-y="-8"
     inkscape:window-maximized="1"
     inkscape:current-layer="layer2" /><defs
     id="defs1"><pattern
       id="EMFhbasepattern"
       patternUnits="userSpaceOnUse"
       width="6"
       height="6"
       x="0"
       y="0" /></defs><g
     inkscape:groupmode="layer"
     id="layer2"
     inkscape:label="Layer 2"
     style="display:inline"
     transform="translate(-44.488367,-57.653292)"><ellipse
       style="font-variation-settings:normal;display:inline;fill:#cccccc;fill-opacity:1;stroke:#008409;stroke-width:0.844475;stroke-linecap:butt;stroke-linejoin:miter;stroke-miterlimit:4;stroke-dasharray:none;stroke-dashoffset:0;stroke-opacity:1;paint-order:fill markers stroke"
       id="path7"
       cx="59.317822"
       cy="76.871056"
       rx="14.407217"
       ry="18.795527" /><path
       style="font-variation-settings:normal;display:inline;vector-effect:none;fill:#00ffff;fill-opacity:0.189974;stroke:#000000;stroke-width:0.661457;stroke-linecap:butt;stroke-linejoin:miter;stroke-miterlimit:4;stroke-dasharray:none;stroke-dashoffset:0;stroke-opacity:1;-inkscape-stroke:none;paint-order:fill markers stroke;stop-color:#000000"
       d="m 46.236141,70.461834 c 0,0 -0.11625,10.097508 1.796288,14.61951 1.309946,3.097234 3.645557,5.829014 6.327872,7.857315 1.471974,1.113071 3.259425,1.973929 5.094782,2.166545 1.866689,0.195905 3.878836,-0.180478 5.526328,-1.079742 2.652097,-1.447616 4.844256,-3.880425 6.273897,-6.542255 1.358864,-2.530051 1.605563,-5.547881 1.891046,-8.405532 0.280996,-2.812735 -0.18782,-8.478127 -0.18782,-8.478127"
       id="path4"
       sodipodi:nodetypes="cssssssc" /><ellipse
       style="fill:#ffffff;fill-opacity:0.490765;stroke:#000000;stroke-width:0.77277;stroke-dasharray:none;stroke-opacity:1;paint-order:fill markers stroke"
       id="path1"
       cx="56.131523"
       cy="75.22113"
       rx="3.8785479"
       ry="1.6714156"
       transform="matrix(0.99961,0.0279258,-0.04360936,0.99904866,0,0)" /><ellipse
       style="fill:#000000;fill-opacity:1;stroke:none;stroke-width:0.38416;stroke-dasharray:none;stroke-opacity:1;paint-order:fill markers stroke"
       id="path1-4"
       cx="55.722408"
       cy="74.739685"
       rx="1.2657232"
       ry="1.2657238"
       transform="rotate(1.999999)" /><ellipse
       style="fill:#ffffff;fill-opacity:0.490765;stroke:#000000;stroke-width:0.816063;stroke-dasharray:none;stroke-opacity:1;paint-order:fill markers stroke"
       id="path1-5"
       cx="68.160629"
       cy="73.786491"
       rx="4.0332799"
       ry="1.7924181"
       transform="rotate(1.999999)" /><path
       style="fill:none;stroke:#000000;stroke-width:0.661457;stroke-linecap:butt;stroke-linejoin:miter;stroke-dasharray:none;stroke-opacity:1"
       d="m 57.511958,80.407814 -0.88976,1.318856 -0.01444,2.024384 3.335396,1.128923 3.355728,-1.064003 -0.146243,-2.254985 -1.194728,-1.222908"
       id="path2" /><path
       id="rect4"
       style="vector-effect:none;fill:#ffffff;fill-opacity:0.490765;stroke:#000000;stroke-width:0.71194;paint-order:fill markers stroke"
       d="m 55.053222,86.138992 c 0,0 3.414639,1.455208 5.175508,1.455208 1.760869,0 5.175507,-1.455208 5.175507,-1.455208 0.542769,-0.11099 1,0.446 1,1 v 1.606368 c 0,0.554 -0.446,1 -1,1 0,0 -3.405276,1.587499 -5.175507,1.587499 -1.770231,0 -5.175507,-1.587499 -5.175507,-1.587499 -0.539898,-0.124203 -1,-0.446001 -1,-1 v -1.606368 c 0,-0.554 0.446,-1 0.999999,-1 z"
       sodipodi:nodetypes="sssssssssss" /><path
       style="fill:none;stroke:#000000;stroke-width:0.620878;stroke-linecap:butt;stroke-linejoin:miter;stroke-dasharray:none;stroke-opacity:1"
       d="m 55.079258,88.077605 c 0,0 3.397314,1.453107 5.149472,1.452082 1.752579,-10e-4 5.149472,-1.458358 5.149472,-1.458358"
       id="path3"
       sodipodi:nodetypes="csc" /><ellipse
       style="fill:#000000;fill-opacity:1;stroke:none;stroke-width:0.347968;stroke-dasharray:none;stroke-opacity:1;paint-order:fill markers stroke"
       id="path1-4-3"
       cx="67.823158"
       cy="73.857475"
       rx="1.1464782"
       ry="1.1464789"
       transform="rotate(1.999999)" /><path
       style="font-variation-settings:normal;display:inline;fill:none;fill-opacity:0.189974;stroke:#000000;stroke-width:2.02557;stroke-linecap:butt;stroke-linejoin:miter;stroke-miterlimit:4;stroke-dasharray:none;stroke-dashoffset:0;stroke-opacity:1;paint-order:fill markers stroke;stop-color:#000000"
       d="m 48.63878,72.9486 c 0,0 2.281272,-1.310205 4.177128,-1.305393 1.96473,0.005 4.015929,1.833543 4.015929,1.833543"
       id="path5"
       sodipodi:nodetypes="csc" /><path
       style="font-variation-settings:normal;display:inline;vector-effect:none;fill:none;fill-opacity:0.189974;stroke:#000000;stroke-width:2.02557;stroke-linecap:butt;stroke-linejoin:miter;stroke-miterlimit:4;stroke-dasharray:none;stroke-dashoffset:0;stroke-opacity:1;-inkscape-stroke:none;paint-order:fill markers stroke;stop-color:#000000"
       d="m 61.129288,73.208569 c 0,0 2.617519,-1.531769 3.946919,-1.616028 1.945165,-0.123288 4.612642,1.244637 4.612642,1.244637"
       id="path6"
       sodipodi:nodetypes="csc" /></g></svg>
